<svg xmlns="http://www.w3.org/2000/svg" viewBox="0 0 512 512" role="img" aria-labelledby="title desc"><title id="title">AST MCP</title><desc id="desc">A geometric emblem combining an abstract syntax tree with structured code transformation and patching.</desc><defs><linearGradient id="frame" x1="86" y1="96" x2="426" y2="416" gradientUnits="userSpaceOnUse"><stop offset="0" stop-color="#27c2f3"/><stop offset=".48" stop-color="#2878e8"/><stop offset="1" stop-color="#8a3ffc"/></linearGradient><linearGradient id="tree" x1="142" y1="150" x2="286" y2="372" gradientUnits="userSpaceOnUse"><stop offset="0" stop-color="#51d7f7"/><stop offset=".55" stop-color="#2587e8"/><stop offset="1" stop-color="#6254e8"/></linearGradient><linearGradient id="patch" x1="276" y1="170" x2="405" y2="350" gradientUnits="userSpaceOnUse"><stop offset="0" stop-color="#9b5cff"/><stop offset="1" stop-color="#6f32d8"/></linearGradient><filter id="soft" x="-20%" y="-20%" width="140%" height="140%"><feGaussianBlur stdDeviation="7"/></filter></defs><path d="M256 45 421 140v232L256 467 91 372V140L256 45Z" fill="none" stroke="url(#frame)" stroke-width="14" opacity=".16" filter="url(#soft)"/><path d="M246 56 98 141v118" fill="none" stroke="url(#frame)" stroke-width="18" stroke-linecap="round" stroke-linejoin="round"/><path d="M98 259 67 290l31 31v50l148 85" fill="none" stroke="url(#frame)" stroke-width="18" stroke-linecap="round" stroke-linejoin="round"/><path d="M266 56 414 141v102" fill="none" stroke="url(#frame)" stroke-width="18" stroke-linecap="round" stroke-linejoin="round"/><path d="M414 337v34l-148 85" fill="none" stroke="url(#frame)" stroke-width="18" stroke-linecap="round" stroke-linejoin="round"/><path d="M256 117v278" fill="none" stroke="url(#tree)" stroke-width="13" stroke-linecap="round"/><path d="M256 169 205 132h-43" fill="none" stroke="url(#tree)" stroke-width="11" stroke-linecap="round" stroke-linejoin="round"/><path d="M256 214 196 252h-50" fill="none" stroke="url(#tree)" stroke-width="11" stroke-linecap="round" stroke-linejoin="round"/><path d="M256 260 206 299l-38 55" fill="none" stroke="url(#tree)" stroke-width="11" stroke-linecap="round" stroke-linejoin="round"/><path d="M256 321 210 350v33" fill="none" stroke="url(#tree)" stroke-width="11" stroke-linecap="round" stroke-linejoin="round"/><g fill="#0e1831" stroke="url(#tree)" stroke-width="9"><circle cx="148" cy="132" r="14"/><circle cx="132" cy="252" r="14"/><circle cx="158" cy="367" r="14"/><circle cx="210" cy="397" r="14"/></g><path d="m302 174-31 31 31 31" fill="none" stroke="url(#patch)" stroke-width="13" stroke-linecap="round" stroke-linejoin="round"/><path d="m350 174 31 31-31 31" fill="none" stroke="url(#patch)" stroke-width="13" stroke-linecap="round" stroke-linejoin="round"/><circle cx="326" cy="193" r="6" fill="#8d48f2"/><circle cx="326" cy="217" r="6" fill="#8d48f2"/><g fill="none" stroke="url(#patch)" stroke-width="11" stroke-linecap="round"><path d="M293 279h111"/><path d="M312 313h92" opacity=".9"/><path d="M282 347h63" opacity=".82"/><path d="M363 347h41" opacity=".55"/></g><path d="M256 365 297 338" fill="none" stroke="url(#patch)" stroke-width="11" stroke-linecap="round"/><path d="m297 338 13 13 24-27" fill="none" stroke="url(#patch)" stroke-width="10" stroke-linecap="round" stroke-linejoin="round"/></svg>